<?xml version="1.0" standalone="no"?>
<!DOCTYPE svg PUBLIC "-//W3C//DTD SVG 20010904//EN"
 "http://www.w3.org/TR/2001/REC-SVG-20010904/DTD/svg10.dtd">
<svg version="1.0" xmlns="http://www.w3.org/2000/svg"
 width="450.000000pt" height="450.000000pt" viewBox="0 0 450.000000 450.000000"
 preserveAspectRatio="xMidYMid meet">
<metadata>
Created by potrace 1.11, written by Peter Selinger 2001-2013
</metadata>
<g transform="translate(0.000000,450.000000) scale(0.100000,-0.100000)"
fill="#000000" stroke="none">
<path d="M590 2540 l0 -1140 640 0 640 0 435 -290 c239 -160 437 -290 440
-290 3 0 5 131 5 290 l0 290 580 0 580 0 0 1140 0 1140 -1660 0 -1660 0 0
-1140z m3200 0 l0 -1020 -585 0 -585 0 -2 -234 -3 -234 -350 234 -349 234
-603 0 -603 0 0 1020 0 1020 1540 0 1540 0 0 -1020z"/>
<path d="M1152 3063 l3 -138 288 0 c158 0 287 -2 287 -4 0 -2 -17 -22 -38 -45
-20 -22 -155 -208 -300 -413 l-262 -371 0 -101 0 -101 515 0 516 0 -3 138 -3
137 -305 0 -306 0 46 57 c25 31 161 220 303 421 l257 364 0 97 0 96 -500 0
-501 0 3 -137z"/>
<path d="M2445 2553 c-121 -355 -222 -650 -223 -655 -2 -5 72 -7 164 -6 l167
3 37 130 37 130 206 3 206 2 25 -82 c13 -46 31 -105 39 -133 l14 -50 167 -3
c93 -1 166 1 164 6 -1 5 -102 300 -223 655 l-220 647 -170 0 -170 0 -220 -647z
m484 -14 c17 -59 31 -110 31 -113 0 -3 -56 -6 -125 -6 -69 0 -125 3 -125 6 0
4 22 84 49 178 27 94 55 200 62 236 l13 65 32 -130 c17 -72 46 -178 63 -236z"/>
</g>
</svg>
